<?xml version="1.0" encoding="UTF-8" standalone="no"?>
<!-- Uploaded to: SVG Repo, www.svgrepo.com, Transformed by: SVG Repo Mixer Tools -->

<svg
   width="800px"
   height="800px"
   viewBox="-27.1 -27.1 325.20 325.20"
   version="1.1"
   preserveAspectRatio="xMidYMid"
   fill="#000000"
   id="svg8"
   sodipodi:docname="astronomer-svgrepo-com.svg"
   inkscape:version="1.4 (e7c3feb1, 2024-10-09)"
   xmlns:inkscape="http://www.inkscape.org/namespaces/inkscape"
   xmlns:sodipodi="http://sodipodi.sourceforge.net/DTD/sodipodi-0.dtd"
   xmlns="http://www.w3.org/2000/svg"
   xmlns:svg="http://www.w3.org/2000/svg">
  <defs
     id="defs8" />
  <sodipodi:namedview
     id="namedview8"
     pagecolor="#ffffff"
     bordercolor="#666666"
     borderopacity="1.0"
     inkscape:showpageshadow="2"
     inkscape:pageopacity="0.0"
     inkscape:pagecheckerboard="0"
     inkscape:deskcolor="#d1d1d1"
     inkscape:zoom="0.51147846"
     inkscape:cx="46.922797"
     inkscape:cy="318.68399"
     inkscape:window-width="1920"
     inkscape:window-height="1027"
     inkscape:window-x="1536"
     inkscape:window-y="25"
     inkscape:window-maximized="1"
     inkscape:current-layer="SVGRepo_bgCarrier" />
  <g
     id="SVGRepo_bgCarrier"
     stroke-width="0">
    <rect
       x="-27.1"
       y="-27.1"
       width="325.20"
       height="325.20"
       rx="162.6"
       fill="#fbfbfb"
       strokewidth="0"
       id="rect1" />
  </g>
  <g
     id="SVGRepo_tracerCarrier"
     stroke-linecap="round"
     stroke-linejoin="round" />
  <g
     id="SVGRepo_iconCarrier">
    <defs
       id="defs2">
      <linearGradient
         x1="21.603111"
         y1="237.81742"
         x2="117.74283"
         y2="237.81742"
         id="linearGradient-1"
         gradientTransform="matrix(2.3314296,0,0,0.74735261,-42.661608,-41.774266)"
         gradientUnits="userSpaceOnUse">
        <stop
           stop-color="#F4362C"
           offset="0%"
           id="stop1" />
        <stop
           stop-color="#FF9A09"
           offset="78.7%"
           id="stop2" />
      </linearGradient>
    </defs>
    <g
       id="g8"
       style="display:inline">
      <path
         d="m 43.854056,196.60183 c 0.916048,1.73032 2.646361,2.84993 4.58024,2.84993 h 25.64935 c 3.25706,0 5.598072,-2.95171 6.412337,-4.47846 l 14.351421,-27.58322 c 0.203568,-0.50892 1.119612,-1.01784 1.526748,-1.01784 H 164.2635 c 0.40714,0 1.2214,0.50892 1.52675,1.01784 l 14.35141,27.58322 c 0.81428,1.52675 3.15528,4.47846 6.41235,4.47846 h 25.64935 c 1.93387,0 3.66419,-1.11961 4.58023,-2.84993 0.91606,-1.73031 0.91606,-3.86775 -0.10176,-5.49629 L 146.85858,64.385542 c -0.91604,-1.730314 -2.64636,-2.748144 -4.47846,-2.748144 h -24.1226 c -1.83209,0 -3.5624,1.01783 -4.47845,2.748144 L 43.955839,191.10554 c -0.916049,1.62854 -1.017832,3.76598 -0.101784,5.49629 z m 69.008964,-63.81803 17.5067,-33.588428 17.45517,33.509928 c 0.16432,0.28573 0.19523,0.55605 0.0775,0.77677 -0.12384,0.21588 -0.48665,0.38076 -0.79199,0.38116 l -33.55651,0.0402 c -0.30535,3.7e-4 -0.5722,-0.20596 -0.64334,-0.39849 -0.10176,-0.20355 -0.14932,-0.41574 -0.0475,-0.7211 z"
         fill="#00000"
         id="path6"
         style="fill:#302c43;fill-opacity:1;stroke-width:1.32"
         sodipodi:nodetypes="sssccssccsssccssccssccccssccc" />
      <path
         d="m 227.40739,115.8111 c 0.40307,-1.07484 1.61223,-2.01531 2.95577,-2.284 l 28.75171,-4.43369 c 1.20918,-0.13432 2.28401,0.26871 2.68709,1.07484 0.40304,0.80611 0.13432,1.88094 -0.80614,2.68706 l -21.36223,19.61566 c -1.07484,0.94047 -2.55273,1.34353 -3.62758,0.94047 -1.07481,-0.40308 -1.61223,-1.34354 -1.20917,-2.55272 0.13432,-0.2687 0.13432,-0.53741 0.26872,-0.80612 0.67177,-2.41838 0.53741,-4.83674 -0.53743,-6.98639 -1.07482,-2.14967 -2.95577,-3.89626 -5.50851,-4.83675 -0.13432,0 -0.2687,-0.13432 -0.40305,-0.13432 -0.53741,-0.13433 -0.94047,-0.5374 -1.20918,-0.94048 -0.13432,-0.26869 -0.13432,-0.80612 0,-1.34352 z"
         fill="#00000"
         id="path7"
         style="fill:#302c43;fill-opacity:1;stroke-width:1.7424" />
      <path
         d="m 8.7388748,145.81205 c 8.3462172,-24.42796 66.8715182,-45.70063 66.8715182,-45.70063 0.203567,-0.10176 0.407132,-0.10176 0.508916,-0.10176 0.916048,0 1.730313,0.81427 1.730313,1.73031 0,0.71249 -0.407133,1.2214 -1.017832,1.52675 -9.567614,4.68203 -52.31653,26.26006 -56.794987,42.74892 -0.712482,1.93387 -0.814265,3.76597 0.101784,5.49629 3.664193,6.81947 22.494072,9.66939 50.484433,7.53195 26.260052,-2.03566 58.42352,-5.69985 97.91538,-17.81205 18.32096,-5.59807 35.82765,-11.90862 52.11296,-18.82987 l 0.50891,-0.20357 2.13745,-0.81427 c 0.71248,-0.30534 1.42496,-0.40713 2.23922,-0.40713 3.35885,0 6.107,2.64636 6.20878,6.0052 0,0.30535 0.10176,0.71249 0.10176,1.01784 -0.10176,2.13744 -1.62853,3.96954 -3.86777,4.88558 l -1.7303,0.71249 c -16.38709,6.81947 -33.48666,12.92645 -52.11297,18.72809 -35.21696,10.78902 -67.78756,16.69243 -105.854456,19.03345 -5.089156,0.30535 -9.872964,0.50891 -14.351421,0.50891 -3.257061,0 -6.412337,-0.10176 -9.364048,-0.20356 -1.221398,-0.10176 -2.341013,-0.10176 -3.56241,-0.20357 C 30.622226,170.44358 1.8175988,165.96514 8.738852,145.81207 Z"
         fill="url(#linearGradient-1)"
         id="path8"
         style="fill:url(#linearGradient-1);stroke-width:1.32" />
    </g>
  </g>
</svg>
