<?xml version="1.0" encoding="UTF-8" standalone="no"?>
<!DOCTYPE svg PUBLIC "-//W3C//DTD SVG 1.1//EN"
 "http://www.w3.org/Graphics/SVG/1.1/DTD/svg11.dtd">
<!-- Generated by graphviz version 12.2.1 (20241206.2353)
 -->
<!-- Title: include/Astro.hh Pages: 1 -->
<svg width="238pt" height="304pt"
 viewBox="0.00 0.00 237.88 303.50" xmlns="http://www.w3.org/2000/svg" xmlns:xlink="http://www.w3.org/1999/xlink">
<g id="graph0" class="graph" transform="scale(1 1) rotate(0) translate(4 299.5)">
<title>include/Astro.hh</title>
<!-- Node1 -->
<g id="Node000001" class="node">
<title>Node1</title>
<g id="a_Node000001"><a xlink:title=" ">
<polygon fill="#999999" stroke="#666666" points="166.88,-295.5 80.38,-295.5 80.38,-276.25 166.88,-276.25 166.88,-295.5"/>
<text text-anchor="middle" x="123.62" y="-282" font-family="Helvetica,sans-Serif" font-size="10.00">include/Astro.hh</text>
</a>
</g>
</g>
<!-- Node2 -->
<g id="Node000002" class="node">
<title>Node2</title>
<g id="a_Node000002"><a xlink:href="_orbital_elements_8hh.html" target="_top" xlink:title=" ">
<polygon fill="white" stroke="#666666" points="159.25,-185 0,-185 0,-165.75 159.25,-165.75 159.25,-185"/>
<text text-anchor="middle" x="79.62" y="-171.5" font-family="Helvetica,sans-Serif" font-size="10.00">include/Astro/OrbitalElements.hh</text>
</a>
</g>
</g>
<!-- Node1&#45;&gt;Node2 -->
<g id="edge1_Node000001_Node000002" class="edge">
<title>Node1&#45;&gt;Node2</title>
<g id="a_edge1_Node000001_Node000002"><a xlink:title=" ">
<path fill="none" stroke="#63b8ff" d="M111.89,-266.1C107.33,-258.3 102.34,-249.03 98.62,-240.25 90.61,-221.28 84.55,-197.81 81.61,-185.27"/>
<polygon fill="#63b8ff" stroke="#63b8ff" points="108.89,-267.91 117.06,-274.65 114.88,-264.28 108.89,-267.91"/>
</a>
</g>
</g>
<!-- Node6 -->
<g id="Node000006" class="node">
<title>Node6</title>
<g id="a_Node000006"><a xlink:href="_utilities_8hh.html" target="_top" xlink:title=" ">
<polygon fill="white" stroke="#666666" points="229.88,-240.25 107.38,-240.25 107.38,-221 229.88,-221 229.88,-240.25"/>
<text text-anchor="middle" x="168.62" y="-226.75" font-family="Helvetica,sans-Serif" font-size="10.00">include/Astro/Utilities.hh</text>
</a>
</g>
</g>
<!-- Node1&#45;&gt;Node6 -->
<g id="edge5_Node000001_Node000006" class="edge">
<title>Node1&#45;&gt;Node6</title>
<g id="a_edge5_Node000001_Node000006"><a xlink:title=" ">
<path fill="none" stroke="#63b8ff" d="M138.3,-267.51C145.89,-258.53 154.83,-247.95 161.03,-240.61"/>
<polygon fill="#63b8ff" stroke="#63b8ff" points="135.81,-265.03 132.03,-274.93 141.16,-269.55 135.81,-265.03"/>
</a>
</g>
</g>
<!-- Node3 -->
<g id="Node000003" class="node">
<title>Node3</title>
<g id="a_Node000003"><a xlink:href="_orbit_8hh.html" target="_top" xlink:title=" ">
<polygon fill="white" stroke="#666666" points="141.88,-129.75 31.38,-129.75 31.38,-110.5 141.88,-110.5 141.88,-129.75"/>
<text text-anchor="middle" x="86.62" y="-116.25" font-family="Helvetica,sans-Serif" font-size="10.00">include/Astro/Orbit.hh</text>
</a>
</g>
</g>
<!-- Node2&#45;&gt;Node3 -->
<g id="edge2_Node000002_Node000003" class="edge">
<title>Node2&#45;&gt;Node3</title>
<g id="a_edge2_Node000002_Node000003"><a xlink:title=" ">
<path fill="none" stroke="#63b8ff" d="M82.25,-154.42C83.35,-146.05 84.57,-136.75 85.44,-130.11"/>
<polygon fill="#63b8ff" stroke="#63b8ff" points="78.81,-153.71 80.98,-164.08 85.75,-154.62 78.81,-153.71"/>
</a>
</g>
</g>
<!-- Node4 -->
<g id="Node000004" class="node">
<title>Node4</title>
<g id="a_Node000004"><a xlink:href="_body_8hh.html" target="_top" xlink:title=" ">
<polygon fill="white" stroke="#666666" points="153.88,-74.5 43.38,-74.5 43.38,-55.25 153.88,-55.25 153.88,-74.5"/>
<text text-anchor="middle" x="98.62" y="-61" font-family="Helvetica,sans-Serif" font-size="10.00">include/Astro/Body.hh</text>
</a>
</g>
</g>
<!-- Node3&#45;&gt;Node4 -->
<g id="edge3_Node000003_Node000004" class="edge">
<title>Node3&#45;&gt;Node4</title>
<g id="a_edge3_Node000003_Node000004"><a xlink:title=" ">
<path fill="none" stroke="#63b8ff" d="M91.12,-99.17C93.01,-90.8 95.1,-81.5 96.6,-74.86"/>
<polygon fill="#63b8ff" stroke="#63b8ff" points="87.72,-98.33 88.94,-108.86 94.55,-99.87 87.72,-98.33"/>
</a>
</g>
</g>
<!-- Node5 -->
<g id="Node000005" class="node">
<title>Node5</title>
<g id="a_Node000005"><a xlink:href="_planets_8hh.html" target="_top" xlink:title=" ">
<polygon fill="white" stroke="#666666" points="200.88,-19.25 78.38,-19.25 78.38,0 200.88,0 200.88,-19.25"/>
<text text-anchor="middle" x="139.62" y="-5.75" font-family="Helvetica,sans-Serif" font-size="10.00">include/Astro/Planets.hh</text>
</a>
</g>
</g>
<!-- Node4&#45;&gt;Node5 -->
<g id="edge4_Node000004_Node000005" class="edge">
<title>Node4&#45;&gt;Node5</title>
<g id="a_edge4_Node000004_Node000005"><a xlink:title=" ">
<path fill="none" stroke="#63b8ff" d="M112.21,-46.22C119.08,-37.31 127.12,-26.87 132.71,-19.61"/>
<polygon fill="#63b8ff" stroke="#63b8ff" points="109.65,-43.82 106.32,-53.88 115.19,-48.09 109.65,-43.82"/>
</a>
</g>
</g>
<!-- Node6&#45;&gt;Node2 -->
<g id="edge6_Node000006_Node000002" class="edge">
<title>Node6&#45;&gt;Node2</title>
<g id="a_edge6_Node000006_Node000002"><a xlink:title=" ">
<path fill="none" stroke="#63b8ff" d="M143.89,-214.82C128.14,-205.4 108.25,-193.5 94.8,-185.45"/>
<polygon fill="#63b8ff" stroke="#63b8ff" points="141.85,-217.68 152.23,-219.81 145.44,-211.68 141.85,-217.68"/>
</a>
</g>
</g>
<!-- Node6&#45;&gt;Node5 -->
<g id="edge7_Node000006_Node000005" class="edge">
<title>Node6&#45;&gt;Node5</title>
<g id="a_edge7_Node000006_Node000005"><a xlink:title=" ">
<path fill="none" stroke="#63b8ff" d="M170.87,-209.51C173.89,-176.6 177.34,-109.45 162.62,-55.25 159.06,-42.13 151.3,-28.43 145.78,-19.73"/>
<polygon fill="#63b8ff" stroke="#63b8ff" points="167.41,-208.9 169.88,-219.2 174.37,-209.6 167.41,-208.9"/>
</a>
</g>
</g>
</g>
</svg>
