<?xml version="1.0" encoding="UTF-8" standalone="no"?>
<!DOCTYPE svg PUBLIC "-//W3C//DTD SVG 1.1//EN"
 "http://www.w3.org/Graphics/SVG/1.1/DTD/svg11.dtd">
<!-- Generated by graphviz version 12.2.1 (20241206.2353)
 -->
<!-- Title: include/Astro.hh Pages: 1 -->
<svg width="1058pt" height="83pt"
 viewBox="0.00 0.00 1057.75 82.50" xmlns="http://www.w3.org/2000/svg" xmlns:xlink="http://www.w3.org/1999/xlink">
<g id="graph0" class="graph" transform="scale(1 1) rotate(0) translate(4 78.5)">
<title>include/Astro.hh</title>
<!-- Node1 -->
<g id="Node000001" class="node">
<title>Node1</title>
<g id="a_Node000001"><a xlink:title=" ">
<polygon fill="#999999" stroke="#666666" points="470,-74.5 383.5,-74.5 383.5,-55.25 470,-55.25 470,-74.5"/>
<text text-anchor="middle" x="426.75" y="-61" font-family="Helvetica,sans-Serif" font-size="10.00">include/Astro.hh</text>
</a>
</g>
</g>
<!-- Node2 -->
<g id="Node000002" class="node">
<title>Node2</title>
<g id="a_Node000002"><a xlink:title=" ">
<polygon fill="#e0e0e0" stroke="#999999" points="53.5,-19.25 0,-19.25 0,0 53.5,0 53.5,-19.25"/>
<text text-anchor="middle" x="26.75" y="-5.75" font-family="Helvetica,sans-Serif" font-size="10.00">iostream</text>
</a>
</g>
</g>
<!-- Node1&#45;&gt;Node2 -->
<g id="edge1_Node000001_Node000002" class="edge">
<title>Node1&#45;&gt;Node2</title>
<g id="a_edge1_Node000001_Node000002"><a xlink:title=" ">
<path fill="none" stroke="#63b8ff" d="M383.23,-60.26C316.63,-54.35 185.24,-41.24 65.04,-19.68"/>
<polygon fill="#63b8ff" stroke="#63b8ff" points="65.77,-16.25 55.3,-17.91 64.51,-23.14 65.77,-16.25"/>
</a>
</g>
</g>
<!-- Node3 -->
<g id="Node000003" class="node">
<title>Node3</title>
<g id="a_Node000003"><a xlink:title=" ">
<polygon fill="#e0e0e0" stroke="#999999" points="108.25,-19.25 71.25,-19.25 71.25,0 108.25,0 108.25,-19.25"/>
<text text-anchor="middle" x="89.75" y="-5.75" font-family="Helvetica,sans-Serif" font-size="10.00">tuple</text>
</a>
</g>
</g>
<!-- Node1&#45;&gt;Node3 -->
<g id="edge2_Node000001_Node000003" class="edge">
<title>Node1&#45;&gt;Node3</title>
<g id="a_edge2_Node000001_Node000003"><a xlink:title=" ">
<path fill="none" stroke="#63b8ff" d="M383.12,-59.73C325.09,-53.76 219.22,-41.21 119.77,-19.37"/>
<polygon fill="#63b8ff" stroke="#63b8ff" points="120.62,-15.97 110.1,-17.2 119.09,-22.8 120.62,-15.97"/>
</a>
</g>
</g>
<!-- Node4 -->
<g id="Node000004" class="node">
<title>Node4</title>
<g id="a_Node000004"><a xlink:title=" ">
<polygon fill="#e0e0e0" stroke="#999999" points="166.75,-19.25 126.75,-19.25 126.75,0 166.75,0 166.75,-19.25"/>
<text text-anchor="middle" x="146.75" y="-5.75" font-family="Helvetica,sans-Serif" font-size="10.00">string</text>
</a>
</g>
</g>
<!-- Node1&#45;&gt;Node4 -->
<g id="edge3_Node000001_Node000004" class="edge">
<title>Node1&#45;&gt;Node4</title>
<g id="a_edge3_Node000001_Node000004"><a xlink:title=" ">
<path fill="none" stroke="#63b8ff" d="M383.36,-57.69C335.34,-50.5 255.47,-37.56 177.88,-19.53"/>
<polygon fill="#63b8ff" stroke="#63b8ff" points="178.96,-16.19 168.43,-17.3 177.36,-23 178.96,-16.19"/>
</a>
</g>
</g>
<!-- Node5 -->
<g id="Node000005" class="node">
<title>Node5</title>
<g id="a_Node000005"><a xlink:title=" ">
<polygon fill="#e0e0e0" stroke="#999999" points="228.25,-19.25 185.25,-19.25 185.25,0 228.25,0 228.25,-19.25"/>
<text text-anchor="middle" x="206.75" y="-5.75" font-family="Helvetica,sans-Serif" font-size="10.00">cmath</text>
</a>
</g>
</g>
<!-- Node1&#45;&gt;Node5 -->
<g id="edge4_Node000001_Node000005" class="edge">
<title>Node1&#45;&gt;Node5</title>
<g id="a_edge4_Node000001_Node000005"><a xlink:title=" ">
<path fill="none" stroke="#63b8ff" d="M386.08,-54.76C350.05,-46.58 295.76,-33.99 239.61,-19.65"/>
<polygon fill="#63b8ff" stroke="#63b8ff" points="240.76,-16.33 230.2,-17.23 239.02,-23.11 240.76,-16.33"/>
</a>
</g>
</g>
<!-- Node6 -->
<g id="Node000006" class="node">
<title>Node6</title>
<g id="a_Node000006"><a xlink:title=" ">
<polygon fill="#e0e0e0" stroke="#999999" points="318.88,-19.25 246.62,-19.25 246.62,0 318.88,0 318.88,-19.25"/>
<text text-anchor="middle" x="282.75" y="-5.75" font-family="Helvetica,sans-Serif" font-size="10.00">Eigen/Dense</text>
</a>
</g>
</g>
<!-- Node1&#45;&gt;Node6 -->
<g id="edge5_Node000001_Node000006" class="edge">
<title>Node1&#45;&gt;Node6</title>
<g id="a_edge5_Node000001_Node000006"><a xlink:title=" ">
<path fill="none" stroke="#63b8ff" d="M402.32,-54.84C379.15,-46.27 344.09,-33.31 317.91,-23.63"/>
<polygon fill="#63b8ff" stroke="#63b8ff" points="319.31,-20.41 308.72,-20.23 316.88,-26.98 319.31,-20.41"/>
</a>
</g>
</g>
<!-- Node7 -->
<g id="Node000007" class="node">
<title>Node7</title>
<g id="a_Node000007"><a xlink:title=" ">
<polygon fill="#e0e0e0" stroke="#999999" points="423,-19.25 336.5,-19.25 336.5,0 423,0 423,-19.25"/>
<text text-anchor="middle" x="379.75" y="-5.75" font-family="Helvetica,sans-Serif" font-size="10.00">Eigen/Geometry</text>
</a>
</g>
</g>
<!-- Node1&#45;&gt;Node7 -->
<g id="edge6_Node000001_Node000007" class="edge">
<title>Node1&#45;&gt;Node7</title>
<g id="a_edge6_Node000001_Node000007"><a xlink:title=" ">
<path fill="none" stroke="#63b8ff" d="M418.99,-55.08C412.56,-47.8 403.24,-37.23 395.29,-28.23"/>
<polygon fill="#63b8ff" stroke="#63b8ff" points="397.92,-25.93 388.68,-20.74 392.67,-30.56 397.92,-25.93"/>
</a>
</g>
</g>
<!-- Node8 -->
<g id="Node000008" class="node">
<title>Node8</title>
<g id="a_Node000008"><a xlink:title=" ">
<polygon fill="#e0e0e0" stroke="#999999" points="506.88,-19.25 440.62,-19.25 440.62,0 506.88,0 506.88,-19.25"/>
<text text-anchor="middle" x="473.75" y="-5.75" font-family="Helvetica,sans-Serif" font-size="10.00">Optimist.hh</text>
</a>
</g>
</g>
<!-- Node1&#45;&gt;Node8 -->
<g id="edge7_Node000001_Node000008" class="edge">
<title>Node1&#45;&gt;Node8</title>
<g id="a_edge7_Node000001_Node000008"><a xlink:title=" ">
<path fill="none" stroke="#63b8ff" d="M434.51,-55.08C440.94,-47.8 450.26,-37.23 458.21,-28.23"/>
<polygon fill="#63b8ff" stroke="#63b8ff" points="460.83,-30.56 464.82,-20.74 455.58,-25.93 460.83,-30.56"/>
</a>
</g>
</g>
<!-- Node9 -->
<g id="Node000009" class="node">
<title>Node9</title>
<g id="a_Node000009"><a xlink:title=" ">
<polygon fill="#e0e0e0" stroke="#999999" points="590.12,-19.25 525.38,-19.25 525.38,0 590.12,0 590.12,-19.25"/>
<text text-anchor="middle" x="557.75" y="-5.75" font-family="Helvetica,sans-Serif" font-size="10.00">Sandals.hh</text>
</a>
</g>
</g>
<!-- Node1&#45;&gt;Node9 -->
<g id="edge8_Node000001_Node000009" class="edge">
<title>Node1&#45;&gt;Node9</title>
<g id="a_edge8_Node000001_Node000009"><a xlink:title=" ">
<path fill="none" stroke="#63b8ff" d="M448.97,-54.84C469.77,-46.39 501.1,-33.65 524.8,-24.02"/>
<polygon fill="#63b8ff" stroke="#63b8ff" points="526.07,-27.28 534.02,-20.27 523.43,-20.8 526.07,-27.28"/>
</a>
</g>
</g>
<!-- Node10 -->
<g id="Node000010" class="node">
<title>Node10</title>
<g id="a_Node000010"><a xlink:href="_utilities_8hxx.html" target="_top" xlink:title=" ">
<polygon fill="white" stroke="#666666" points="701.75,-19.25 607.75,-19.25 607.75,0 701.75,0 701.75,-19.25"/>
<text text-anchor="middle" x="654.75" y="-5.75" font-family="Helvetica,sans-Serif" font-size="10.00">Astro/Utilities.hxx</text>
</a>
</g>
</g>
<!-- Node1&#45;&gt;Node10 -->
<g id="edge9_Node000001_Node000010" class="edge">
<title>Node1&#45;&gt;Node10</title>
<g id="a_edge9_Node000001_Node000010"><a xlink:title=" ">
<path fill="none" stroke="#63b8ff" d="M465.69,-54.78C504.13,-45.8 563.08,-32.03 604.93,-22.26"/>
<polygon fill="#63b8ff" stroke="#63b8ff" points="605.56,-25.71 614.5,-20.03 603.97,-18.89 605.56,-25.71"/>
</a>
</g>
</g>
<!-- Node11 -->
<g id="Node000011" class="node">
<title>Node11</title>
<g id="a_Node000011"><a xlink:href="_orbital_elements_8hxx.html" target="_top" xlink:title=" ">
<polygon fill="white" stroke="#666666" points="850.12,-19.25 719.38,-19.25 719.38,0 850.12,0 850.12,-19.25"/>
<text text-anchor="middle" x="784.75" y="-5.75" font-family="Helvetica,sans-Serif" font-size="10.00">Astro/OrbitalElements.hxx</text>
</a>
</g>
</g>
<!-- Node1&#45;&gt;Node11 -->
<g id="edge10_Node000001_Node000011" class="edge">
<title>Node1&#45;&gt;Node11</title>
<g id="a_edge10_Node000001_Node000011"><a xlink:title=" ">
<path fill="none" stroke="#63b8ff" d="M470.29,-57.4C530.43,-48.45 639.7,-32.2 712.26,-21.41"/>
<polygon fill="#63b8ff" stroke="#63b8ff" points="712.71,-24.88 722.08,-19.95 711.68,-17.96 712.71,-24.88"/>
</a>
</g>
</g>
<!-- Node12 -->
<g id="Node000012" class="node">
<title>Node12</title>
<g id="a_Node000012"><a xlink:href="_orbit_8hxx.html" target="_top" xlink:title=" ">
<polygon fill="white" stroke="#666666" points="949.75,-19.25 867.75,-19.25 867.75,0 949.75,0 949.75,-19.25"/>
<text text-anchor="middle" x="908.75" y="-5.75" font-family="Helvetica,sans-Serif" font-size="10.00">Astro/Orbit.hxx</text>
</a>
</g>
</g>
<!-- Node1&#45;&gt;Node12 -->
<g id="edge11_Node000001_Node000012" class="edge">
<title>Node1&#45;&gt;Node12</title>
<g id="a_edge11_Node000001_Node000012"><a xlink:title=" ">
<path fill="none" stroke="#63b8ff" d="M470.4,-60.35C546.59,-53.99 709.02,-39.48 856.29,-19.51"/>
<polygon fill="#63b8ff" stroke="#63b8ff" points="856.38,-23.03 865.81,-18.2 855.43,-16.09 856.38,-23.03"/>
</a>
</g>
</g>
<!-- Node13 -->
<g id="Node000013" class="node">
<title>Node13</title>
<g id="a_Node000013"><a xlink:href="_body_8hxx.html" target="_top" xlink:title=" ">
<polygon fill="white" stroke="#666666" points="1049.75,-19.25 967.75,-19.25 967.75,0 1049.75,0 1049.75,-19.25"/>
<text text-anchor="middle" x="1008.75" y="-5.75" font-family="Helvetica,sans-Serif" font-size="10.00">Astro/Body.hxx</text>
</a>
</g>
</g>
<!-- Node1&#45;&gt;Node13 -->
<g id="edge12_Node000001_Node000013" class="edge">
<title>Node1&#45;&gt;Node13</title>
<g id="a_edge12_Node000001_Node000013"><a xlink:title=" ">
<path fill="none" stroke="#63b8ff" d="M470.33,-61.51C559.51,-56.39 769.47,-42.92 955.92,-19.51"/>
<polygon fill="#63b8ff" stroke="#63b8ff" points="956.34,-22.98 965.82,-18.25 955.46,-16.04 956.34,-22.98"/>
</a>
</g>
</g>
</g>
</svg>
