<?xml version="1.0" encoding="UTF-8" standalone="no"?>
<!DOCTYPE svg PUBLIC "-//W3C//DTD SVG 1.1//EN"
 "http://www.w3.org/Graphics/SVG/1.1/DTD/svg11.dtd">
<!-- Generated by graphviz version 12.2.1 (20241206.2353)
 -->
<!-- Title: include/Astro/OrbitalElements.hh Pages: 1 -->
<svg width="167pt" height="193pt"
 viewBox="0.00 0.00 167.25 193.00" xmlns="http://www.w3.org/2000/svg" xmlns:xlink="http://www.w3.org/1999/xlink">
<g id="graph0" class="graph" transform="scale(1 1) rotate(0) translate(4 189)">
<title>include/Astro/OrbitalElements.hh</title>
<!-- Node1 -->
<g id="Node000001" class="node">
<title>Node1</title>
<g id="a_Node000001"><a xlink:title=" ">
<polygon fill="#999999" stroke="#666666" points="159.25,-185 0,-185 0,-165.75 159.25,-165.75 159.25,-185"/>
<text text-anchor="middle" x="79.62" y="-171.5" font-family="Helvetica,sans-Serif" font-size="10.00">include/Astro/OrbitalElements.hh</text>
</a>
</g>
</g>
<!-- Node2 -->
<g id="Node000002" class="node">
<title>Node2</title>
<g id="a_Node000002"><a xlink:href="_orbit_8hh.html" target="_top" xlink:title=" ">
<polygon fill="white" stroke="#666666" points="134.88,-129.75 24.38,-129.75 24.38,-110.5 134.88,-110.5 134.88,-129.75"/>
<text text-anchor="middle" x="79.62" y="-116.25" font-family="Helvetica,sans-Serif" font-size="10.00">include/Astro/Orbit.hh</text>
</a>
</g>
</g>
<!-- Node1&#45;&gt;Node2 -->
<g id="edge1_Node000001_Node000002" class="edge">
<title>Node1&#45;&gt;Node2</title>
<g id="a_edge1_Node000001_Node000002"><a xlink:title=" ">
<path fill="none" stroke="#63b8ff" d="M79.62,-154.13C79.62,-145.84 79.62,-136.67 79.62,-130.11"/>
<polygon fill="#63b8ff" stroke="#63b8ff" points="76.13,-154.07 79.63,-164.07 83.13,-154.07 76.13,-154.07"/>
</a>
</g>
</g>
<!-- Node3 -->
<g id="Node000003" class="node">
<title>Node3</title>
<g id="a_Node000003"><a xlink:href="_body_8hh.html" target="_top" xlink:title=" ">
<polygon fill="white" stroke="#666666" points="134.88,-74.5 24.38,-74.5 24.38,-55.25 134.88,-55.25 134.88,-74.5"/>
<text text-anchor="middle" x="79.62" y="-61" font-family="Helvetica,sans-Serif" font-size="10.00">include/Astro/Body.hh</text>
</a>
</g>
</g>
<!-- Node2&#45;&gt;Node3 -->
<g id="edge2_Node000002_Node000003" class="edge">
<title>Node2&#45;&gt;Node3</title>
<g id="a_edge2_Node000002_Node000003"><a xlink:title=" ">
<path fill="none" stroke="#63b8ff" d="M79.62,-98.88C79.62,-90.59 79.62,-81.42 79.62,-74.86"/>
<polygon fill="#63b8ff" stroke="#63b8ff" points="76.13,-98.82 79.63,-108.82 83.13,-98.82 76.13,-98.82"/>
</a>
</g>
</g>
<!-- Node4 -->
<g id="Node000004" class="node">
<title>Node4</title>
<g id="a_Node000004"><a xlink:href="_planets_8hh.html" target="_top" xlink:title=" ">
<polygon fill="white" stroke="#666666" points="140.88,-19.25 18.38,-19.25 18.38,0 140.88,0 140.88,-19.25"/>
<text text-anchor="middle" x="79.62" y="-5.75" font-family="Helvetica,sans-Serif" font-size="10.00">include/Astro/Planets.hh</text>
</a>
</g>
</g>
<!-- Node3&#45;&gt;Node4 -->
<g id="edge3_Node000003_Node000004" class="edge">
<title>Node3&#45;&gt;Node4</title>
<g id="a_edge3_Node000003_Node000004"><a xlink:title=" ">
<path fill="none" stroke="#63b8ff" d="M79.62,-43.63C79.62,-35.34 79.62,-26.17 79.62,-19.61"/>
<polygon fill="#63b8ff" stroke="#63b8ff" points="76.13,-43.57 79.63,-53.57 83.13,-43.57 76.13,-43.57"/>
</a>
</g>
</g>
</g>
</svg>
