<?xml version="1.0" encoding="UTF-8" standalone="no"?>
<!DOCTYPE svg PUBLIC "-//W3C//DTD SVG 1.1//EN"
 "http://www.w3.org/Graphics/SVG/1.1/DTD/svg11.dtd">
<!-- Generated by graphviz version 12.2.1 (20241206.2353)
 -->
<!-- Title: include/Astro/Planets.hh Pages: 1 -->
<svg width="431pt" height="359pt"
 viewBox="0.00 0.00 431.00 358.75" xmlns="http://www.w3.org/2000/svg" xmlns:xlink="http://www.w3.org/1999/xlink">
<g id="graph0" class="graph" transform="scale(1 1) rotate(0) translate(4 354.75)">
<title>include/Astro/Planets.hh</title>
<!-- Node1 -->
<g id="Node000001" class="node">
<title>Node1</title>
<g id="a_Node000001"><a xlink:title=" ">
<polygon fill="#999999" stroke="#666666" points="260,-350.75 137.5,-350.75 137.5,-331.5 260,-331.5 260,-350.75"/>
<text text-anchor="middle" x="198.75" y="-337.25" font-family="Helvetica,sans-Serif" font-size="10.00">include/Astro/Planets.hh</text>
</a>
</g>
</g>
<!-- Node2 -->
<g id="Node000002" class="node">
<title>Node2</title>
<g id="a_Node000002"><a xlink:href="_body_8hh.html" target="_top" xlink:title=" ">
<polygon fill="white" stroke="#666666" points="204.12,-295.5 127.38,-295.5 127.38,-276.25 204.12,-276.25 204.12,-295.5"/>
<text text-anchor="middle" x="165.75" y="-282" font-family="Helvetica,sans-Serif" font-size="10.00">Astro/Body.hh</text>
</a>
</g>
</g>
<!-- Node1&#45;&gt;Node2 -->
<g id="edge1_Node000001_Node000002" class="edge">
<title>Node1&#45;&gt;Node2</title>
<g id="a_edge1_Node000001_Node000002"><a xlink:title=" ">
<path fill="none" stroke="#63b8ff" d="M193.3,-331.33C188.98,-324.36 182.79,-314.37 177.37,-305.62"/>
<polygon fill="#63b8ff" stroke="#63b8ff" points="180.36,-303.8 172.11,-297.15 174.41,-307.49 180.36,-303.8"/>
</a>
</g>
</g>
<!-- Node12 -->
<g id="Node000012" class="node">
<title>Node12</title>
<g id="a_Node000012"><a xlink:href="_utilities_8hh.html" target="_top" xlink:title=" ">
<polygon fill="white" stroke="#666666" points="257.12,-129.75 168.38,-129.75 168.38,-110.5 257.12,-110.5 257.12,-129.75"/>
<text text-anchor="middle" x="212.75" y="-116.25" font-family="Helvetica,sans-Serif" font-size="10.00">Astro/Utilities.hh</text>
</a>
</g>
</g>
<!-- Node1&#45;&gt;Node12 -->
<g id="edge13_Node000001_Node000012" class="edge">
<title>Node1&#45;&gt;Node12</title>
<g id="a_edge13_Node000001_Node000012"><a xlink:title=" ">
<path fill="none" stroke="#63b8ff" d="M202.48,-331.09C205.93,-322.21 210.81,-308.18 212.75,-295.5 221.25,-240.02 217.44,-173.45 214.69,-140.94"/>
<polygon fill="#63b8ff" stroke="#63b8ff" points="218.21,-141.05 213.82,-131.41 211.24,-141.69 218.21,-141.05"/>
</a>
</g>
</g>
<!-- Node3 -->
<g id="Node000003" class="node">
<title>Node3</title>
<g id="a_Node000003"><a xlink:href="_orbit_8hh.html" target="_top" xlink:title=" ">
<polygon fill="white" stroke="#666666" points="192.12,-240.25 115.38,-240.25 115.38,-221 192.12,-221 192.12,-240.25"/>
<text text-anchor="middle" x="153.75" y="-226.75" font-family="Helvetica,sans-Serif" font-size="10.00">Astro/Orbit.hh</text>
</a>
</g>
</g>
<!-- Node2&#45;&gt;Node3 -->
<g id="edge2_Node000002_Node000003" class="edge">
<title>Node2&#45;&gt;Node3</title>
<g id="a_edge2_Node000002_Node000003"><a xlink:title=" ">
<path fill="none" stroke="#63b8ff" d="M163.77,-276.08C162.28,-269.49 160.19,-260.21 158.3,-251.82"/>
<polygon fill="#63b8ff" stroke="#63b8ff" points="161.72,-251.07 156.11,-242.09 154.89,-252.61 161.72,-251.07"/>
</a>
</g>
</g>
<!-- Node4 -->
<g id="Node000004" class="node">
<title>Node4</title>
<g id="a_Node000004"><a xlink:href="_orbital_elements_8hh.html" target="_top" xlink:title=" ">
<polygon fill="white" stroke="#666666" points="203.5,-185 78,-185 78,-165.75 203.5,-165.75 203.5,-185"/>
<text text-anchor="middle" x="140.75" y="-171.5" font-family="Helvetica,sans-Serif" font-size="10.00">Astro/OrbitalElements.hh</text>
</a>
</g>
</g>
<!-- Node3&#45;&gt;Node4 -->
<g id="edge3_Node000003_Node000004" class="edge">
<title>Node3&#45;&gt;Node4</title>
<g id="a_edge3_Node000003_Node000004"><a xlink:title=" ">
<path fill="none" stroke="#63b8ff" d="M151.6,-220.83C149.98,-214.17 147.67,-204.74 145.61,-196.28"/>
<polygon fill="#63b8ff" stroke="#63b8ff" points="149.07,-195.71 143.3,-186.83 142.27,-197.37 149.07,-195.71"/>
</a>
</g>
</g>
<!-- Node5 -->
<g id="Node000005" class="node">
<title>Node5</title>
<g id="a_Node000005"><a xlink:href="_astro_8hh.html" target="_top" xlink:title=" ">
<polygon fill="white" stroke="#666666" points="203.12,-74.5 150.38,-74.5 150.38,-55.25 203.12,-55.25 203.12,-74.5"/>
<text text-anchor="middle" x="176.75" y="-61" font-family="Helvetica,sans-Serif" font-size="10.00">Astro.hh</text>
</a>
</g>
</g>
<!-- Node4&#45;&gt;Node5 -->
<g id="edge4_Node000004_Node000005" class="edge">
<title>Node4&#45;&gt;Node5</title>
<g id="a_edge4_Node000004_Node000005"><a xlink:title=" ">
<path fill="none" stroke="#63b8ff" d="M143.13,-165.63C146.54,-153.27 153.14,-130.01 159.75,-110.5 162.58,-102.16 165.98,-93.05 169,-85.26"/>
<polygon fill="#63b8ff" stroke="#63b8ff" points="172.2,-86.69 172.61,-76.1 165.69,-84.12 172.2,-86.69"/>
</a>
</g>
</g>
<!-- Node4&#45;&gt;Node12 -->
<g id="edge11_Node000004_Node000012" class="edge">
<title>Node4&#45;&gt;Node12</title>
<g id="a_edge11_Node000004_Node000012"><a xlink:title=" ">
<path fill="none" stroke="#63b8ff" d="M152.96,-165.34C163.58,-157.49 179.19,-145.95 191.79,-136.62"/>
<polygon fill="#63b8ff" stroke="#63b8ff" points="193.54,-139.69 199.5,-130.92 189.38,-134.06 193.54,-139.69"/>
</a>
</g>
</g>
<!-- Node6 -->
<g id="Node000006" class="node">
<title>Node6</title>
<g id="a_Node000006"><a xlink:title=" ">
<polygon fill="#e0e0e0" stroke="#999999" points="53.5,-19.25 0,-19.25 0,0 53.5,0 53.5,-19.25"/>
<text text-anchor="middle" x="26.75" y="-5.75" font-family="Helvetica,sans-Serif" font-size="10.00">iostream</text>
</a>
</g>
</g>
<!-- Node5&#45;&gt;Node6 -->
<g id="edge5_Node000005_Node000006" class="edge">
<title>Node5&#45;&gt;Node6</title>
<g id="a_edge5_Node000005_Node000006"><a xlink:title=" ">
<path fill="none" stroke="#63b8ff" d="M151.3,-54.84C127.06,-46.24 90.32,-33.19 63.01,-23.5"/>
<polygon fill="#63b8ff" stroke="#63b8ff" points="64.34,-20.26 53.75,-20.21 62,-26.85 64.34,-20.26"/>
</a>
</g>
</g>
<!-- Node7 -->
<g id="Node000007" class="node">
<title>Node7</title>
<g id="a_Node000007"><a xlink:title=" ">
<polygon fill="#e0e0e0" stroke="#999999" points="108.25,-19.25 71.25,-19.25 71.25,0 108.25,0 108.25,-19.25"/>
<text text-anchor="middle" x="89.75" y="-5.75" font-family="Helvetica,sans-Serif" font-size="10.00">tuple</text>
</a>
</g>
</g>
<!-- Node5&#45;&gt;Node7 -->
<g id="edge6_Node000005_Node000007" class="edge">
<title>Node5&#45;&gt;Node7</title>
<g id="a_edge6_Node000005_Node000007"><a xlink:title=" ">
<path fill="none" stroke="#63b8ff" d="M161.99,-54.84C148.87,-46.81 129.43,-34.91 114.02,-25.48"/>
<polygon fill="#63b8ff" stroke="#63b8ff" points="116.23,-22.73 105.87,-20.49 112.57,-28.7 116.23,-22.73"/>
</a>
</g>
</g>
<!-- Node8 -->
<g id="Node000008" class="node">
<title>Node8</title>
<g id="a_Node000008"><a xlink:title=" ">
<polygon fill="#e0e0e0" stroke="#999999" points="166.75,-19.25 126.75,-19.25 126.75,0 166.75,0 166.75,-19.25"/>
<text text-anchor="middle" x="146.75" y="-5.75" font-family="Helvetica,sans-Serif" font-size="10.00">string</text>
</a>
</g>
</g>
<!-- Node5&#45;&gt;Node8 -->
<g id="edge7_Node000005_Node000008" class="edge">
<title>Node5&#45;&gt;Node8</title>
<g id="a_edge7_Node000005_Node000008"><a xlink:title=" ">
<path fill="none" stroke="#63b8ff" d="M171.8,-55.08C167.87,-48.11 162.24,-38.12 157.31,-29.37"/>
<polygon fill="#63b8ff" stroke="#63b8ff" points="160.51,-27.92 152.55,-20.93 154.41,-31.36 160.51,-27.92"/>
</a>
</g>
</g>
<!-- Node9 -->
<g id="Node000009" class="node">
<title>Node9</title>
<g id="a_Node000009"><a xlink:title=" ">
<polygon fill="#e0e0e0" stroke="#999999" points="228.25,-19.25 185.25,-19.25 185.25,0 228.25,0 228.25,-19.25"/>
<text text-anchor="middle" x="206.75" y="-5.75" font-family="Helvetica,sans-Serif" font-size="10.00">cmath</text>
</a>
</g>
</g>
<!-- Node5&#45;&gt;Node9 -->
<g id="edge8_Node000005_Node000009" class="edge">
<title>Node5&#45;&gt;Node9</title>
<g id="a_edge8_Node000005_Node000009"><a xlink:title=" ">
<path fill="none" stroke="#63b8ff" d="M181.7,-55.08C185.63,-48.11 191.26,-38.12 196.19,-29.37"/>
<polygon fill="#63b8ff" stroke="#63b8ff" points="199.09,-31.36 200.95,-20.93 192.99,-27.92 199.09,-31.36"/>
</a>
</g>
</g>
<!-- Node10 -->
<g id="Node000010" class="node">
<title>Node10</title>
<g id="a_Node000010"><a xlink:title=" ">
<polygon fill="#e0e0e0" stroke="#999999" points="318.88,-19.25 246.62,-19.25 246.62,0 318.88,0 318.88,-19.25"/>
<text text-anchor="middle" x="282.75" y="-5.75" font-family="Helvetica,sans-Serif" font-size="10.00">Eigen/Dense</text>
</a>
</g>
</g>
<!-- Node5&#45;&gt;Node10 -->
<g id="edge9_Node000005_Node000010" class="edge">
<title>Node5&#45;&gt;Node10</title>
<g id="a_edge9_Node000005_Node000010"><a xlink:title=" ">
<path fill="none" stroke="#63b8ff" d="M194.73,-54.84C211.1,-46.62 235.54,-34.34 254.51,-24.81"/>
<polygon fill="#63b8ff" stroke="#63b8ff" points="255.96,-28 263.33,-20.38 252.82,-21.74 255.96,-28"/>
</a>
</g>
</g>
<!-- Node11 -->
<g id="Node000011" class="node">
<title>Node11</title>
<g id="a_Node000011"><a xlink:title=" ">
<polygon fill="#e0e0e0" stroke="#999999" points="423,-19.25 336.5,-19.25 336.5,0 423,0 423,-19.25"/>
<text text-anchor="middle" x="379.75" y="-5.75" font-family="Helvetica,sans-Serif" font-size="10.00">Eigen/Geometry</text>
</a>
</g>
</g>
<!-- Node5&#45;&gt;Node11 -->
<g id="edge10_Node000005_Node000011" class="edge">
<title>Node5&#45;&gt;Node11</title>
<g id="a_edge10_Node000005_Node000011"><a xlink:title=" ">
<path fill="none" stroke="#63b8ff" d="M203.29,-56.91C236.42,-48.22 293.63,-33.21 333.91,-22.65"/>
<polygon fill="#63b8ff" stroke="#63b8ff" points="334.8,-26.03 343.58,-20.11 333.02,-19.26 334.8,-26.03"/>
</a>
</g>
</g>
<!-- Node12&#45;&gt;Node5 -->
<g id="edge12_Node000012_Node000005" class="edge">
<title>Node12&#45;&gt;Node5</title>
<g id="a_edge12_Node000012_Node000005"><a xlink:title=" ">
<path fill="none" stroke="#63b8ff" d="M206.81,-110.33C202.04,-103.28 195.19,-93.15 189.23,-84.33"/>
<polygon fill="#63b8ff" stroke="#63b8ff" points="192.17,-82.44 183.67,-76.11 186.37,-86.36 192.17,-82.44"/>
</a>
</g>
</g>
</g>
</svg>
