<?xml version="1.0" encoding="UTF-8" standalone="no"?>
<!DOCTYPE svg PUBLIC "-//W3C//DTD SVG 1.1//EN"
 "http://www.w3.org/Graphics/SVG/1.1/DTD/svg11.dtd">
<!-- Generated by graphviz version 12.2.1 (20241206.2353)
 -->
<!-- Title: include/Astro/Utilities.hh Pages: 1 -->
<svg width="209pt" height="248pt"
 viewBox="0.00 0.00 208.88 248.25" xmlns="http://www.w3.org/2000/svg" xmlns:xlink="http://www.w3.org/1999/xlink">
<g id="graph0" class="graph" transform="scale(1 1) rotate(0) translate(4 244.25)">
<title>include/Astro/Utilities.hh</title>
<!-- Node1 -->
<g id="Node000001" class="node">
<title>Node1</title>
<g id="a_Node000001"><a xlink:title=" ">
<polygon fill="#999999" stroke="#666666" points="194.88,-240.25 72.38,-240.25 72.38,-221 194.88,-221 194.88,-240.25"/>
<text text-anchor="middle" x="133.62" y="-226.75" font-family="Helvetica,sans-Serif" font-size="10.00">include/Astro/Utilities.hh</text>
</a>
</g>
</g>
<!-- Node2 -->
<g id="Node000002" class="node">
<title>Node2</title>
<g id="a_Node000002"><a xlink:href="_orbital_elements_8hh.html" target="_top" xlink:title=" ">
<polygon fill="white" stroke="#666666" points="159.25,-185 0,-185 0,-165.75 159.25,-165.75 159.25,-185"/>
<text text-anchor="middle" x="79.62" y="-171.5" font-family="Helvetica,sans-Serif" font-size="10.00">include/Astro/OrbitalElements.hh</text>
</a>
</g>
</g>
<!-- Node1&#45;&gt;Node2 -->
<g id="edge1_Node000001_Node000002" class="edge">
<title>Node1&#45;&gt;Node2</title>
<g id="a_edge1_Node000001_Node000002"><a xlink:title=" ">
<path fill="none" stroke="#63b8ff" d="M116.59,-212.82C107.36,-203.73 96.33,-192.85 88.74,-185.36"/>
<polygon fill="#63b8ff" stroke="#63b8ff" points="114.05,-215.24 123.63,-219.77 118.97,-210.26 114.05,-215.24"/>
</a>
</g>
</g>
<!-- Node5 -->
<g id="Node000005" class="node">
<title>Node5</title>
<g id="a_Node000005"><a xlink:href="_planets_8hh.html" target="_top" xlink:title=" ">
<polygon fill="white" stroke="#666666" points="200.88,-19.25 78.38,-19.25 78.38,0 200.88,0 200.88,-19.25"/>
<text text-anchor="middle" x="139.62" y="-5.75" font-family="Helvetica,sans-Serif" font-size="10.00">include/Astro/Planets.hh</text>
</a>
</g>
</g>
<!-- Node1&#45;&gt;Node5 -->
<g id="edge5_Node000001_Node000005" class="edge">
<title>Node1&#45;&gt;Node5</title>
<g id="a_edge5_Node000001_Node000005"><a xlink:title=" ">
<path fill="none" stroke="#63b8ff" d="M151.7,-212.22C158.37,-204.57 165.15,-195.06 168.62,-185 176.7,-161.61 200.61,-195.18 162.62,-55.25 159.06,-42.13 151.3,-28.43 145.78,-19.73"/>
<polygon fill="#63b8ff" stroke="#63b8ff" points="149.22,-209.75 144.88,-219.42 154.3,-214.56 149.22,-209.75"/>
</a>
</g>
</g>
<!-- Node3 -->
<g id="Node000003" class="node">
<title>Node3</title>
<g id="a_Node000003"><a xlink:href="_orbit_8hh.html" target="_top" xlink:title=" ">
<polygon fill="white" stroke="#666666" points="146.88,-129.75 36.38,-129.75 36.38,-110.5 146.88,-110.5 146.88,-129.75"/>
<text text-anchor="middle" x="91.62" y="-116.25" font-family="Helvetica,sans-Serif" font-size="10.00">include/Astro/Orbit.hh</text>
</a>
</g>
</g>
<!-- Node2&#45;&gt;Node3 -->
<g id="edge2_Node000002_Node000003" class="edge">
<title>Node2&#45;&gt;Node3</title>
<g id="a_edge2_Node000002_Node000003"><a xlink:title=" ">
<path fill="none" stroke="#63b8ff" d="M84.12,-154.42C86.01,-146.05 88.1,-136.75 89.6,-130.11"/>
<polygon fill="#63b8ff" stroke="#63b8ff" points="80.72,-153.58 81.94,-164.11 87.55,-155.12 80.72,-153.58"/>
</a>
</g>
</g>
<!-- Node4 -->
<g id="Node000004" class="node">
<title>Node4</title>
<g id="a_Node000004"><a xlink:href="_body_8hh.html" target="_top" xlink:title=" ">
<polygon fill="white" stroke="#666666" points="153.88,-74.5 43.38,-74.5 43.38,-55.25 153.88,-55.25 153.88,-74.5"/>
<text text-anchor="middle" x="98.62" y="-61" font-family="Helvetica,sans-Serif" font-size="10.00">include/Astro/Body.hh</text>
</a>
</g>
</g>
<!-- Node3&#45;&gt;Node4 -->
<g id="edge3_Node000003_Node000004" class="edge">
<title>Node3&#45;&gt;Node4</title>
<g id="a_edge3_Node000003_Node000004"><a xlink:title=" ">
<path fill="none" stroke="#63b8ff" d="M94.25,-99.17C95.35,-90.8 96.57,-81.5 97.44,-74.86"/>
<polygon fill="#63b8ff" stroke="#63b8ff" points="90.81,-98.46 92.98,-108.83 97.75,-99.37 90.81,-98.46"/>
</a>
</g>
</g>
<!-- Node4&#45;&gt;Node5 -->
<g id="edge4_Node000004_Node000005" class="edge">
<title>Node4&#45;&gt;Node5</title>
<g id="a_edge4_Node000004_Node000005"><a xlink:title=" ">
<path fill="none" stroke="#63b8ff" d="M112.21,-46.22C119.08,-37.31 127.12,-26.87 132.71,-19.61"/>
<polygon fill="#63b8ff" stroke="#63b8ff" points="109.65,-43.82 106.32,-53.88 115.19,-48.09 109.65,-43.82"/>
</a>
</g>
</g>
</g>
</svg>
