<?xml version="1.0" encoding="UTF-8" standalone="no"?>
<!DOCTYPE svg PUBLIC "-//W3C//DTD SVG 1.1//EN"
 "http://www.w3.org/Graphics/SVG/1.1/DTD/svg11.dtd">
<!-- Generated by graphviz version 12.2.1 (20241206.2353)
 -->
<!-- Title: include/Astro/Utilities.hh Pages: 1 -->
<svg width="431pt" height="138pt"
 viewBox="0.00 0.00 431.00 137.75" xmlns="http://www.w3.org/2000/svg" xmlns:xlink="http://www.w3.org/1999/xlink">
<g id="graph0" class="graph" transform="scale(1 1) rotate(0) translate(4 133.75)">
<title>include/Astro/Utilities.hh</title>
<!-- Node1 -->
<g id="Node000001" class="node">
<title>Node1</title>
<g id="a_Node000001"><a xlink:title=" ">
<polygon fill="#999999" stroke="#666666" points="238,-129.75 115.5,-129.75 115.5,-110.5 238,-110.5 238,-129.75"/>
<text text-anchor="middle" x="176.75" y="-116.25" font-family="Helvetica,sans-Serif" font-size="10.00">include/Astro/Utilities.hh</text>
</a>
</g>
</g>
<!-- Node2 -->
<g id="Node000002" class="node">
<title>Node2</title>
<g id="a_Node000002"><a xlink:href="_astro_8hh.html" target="_top" xlink:title=" ">
<polygon fill="white" stroke="#666666" points="203.12,-74.5 150.38,-74.5 150.38,-55.25 203.12,-55.25 203.12,-74.5"/>
<text text-anchor="middle" x="176.75" y="-61" font-family="Helvetica,sans-Serif" font-size="10.00">Astro.hh</text>
</a>
</g>
</g>
<!-- Node1&#45;&gt;Node2 -->
<g id="edge1_Node000001_Node000002" class="edge">
<title>Node1&#45;&gt;Node2</title>
<g id="a_edge1_Node000001_Node000002"><a xlink:title=" ">
<path fill="none" stroke="#63b8ff" d="M176.75,-110.33C176.75,-103.82 176.75,-94.67 176.75,-86.37"/>
<polygon fill="#63b8ff" stroke="#63b8ff" points="180.25,-86.37 176.75,-76.37 173.25,-86.37 180.25,-86.37"/>
</a>
</g>
</g>
<!-- Node3 -->
<g id="Node000003" class="node">
<title>Node3</title>
<g id="a_Node000003"><a xlink:title=" ">
<polygon fill="#e0e0e0" stroke="#999999" points="53.5,-19.25 0,-19.25 0,0 53.5,0 53.5,-19.25"/>
<text text-anchor="middle" x="26.75" y="-5.75" font-family="Helvetica,sans-Serif" font-size="10.00">iostream</text>
</a>
</g>
</g>
<!-- Node2&#45;&gt;Node3 -->
<g id="edge2_Node000002_Node000003" class="edge">
<title>Node2&#45;&gt;Node3</title>
<g id="a_edge2_Node000002_Node000003"><a xlink:title=" ">
<path fill="none" stroke="#63b8ff" d="M151.3,-54.84C127.06,-46.24 90.32,-33.19 63.01,-23.5"/>
<polygon fill="#63b8ff" stroke="#63b8ff" points="64.34,-20.26 53.75,-20.21 62,-26.85 64.34,-20.26"/>
</a>
</g>
</g>
<!-- Node4 -->
<g id="Node000004" class="node">
<title>Node4</title>
<g id="a_Node000004"><a xlink:title=" ">
<polygon fill="#e0e0e0" stroke="#999999" points="108.25,-19.25 71.25,-19.25 71.25,0 108.25,0 108.25,-19.25"/>
<text text-anchor="middle" x="89.75" y="-5.75" font-family="Helvetica,sans-Serif" font-size="10.00">tuple</text>
</a>
</g>
</g>
<!-- Node2&#45;&gt;Node4 -->
<g id="edge3_Node000002_Node000004" class="edge">
<title>Node2&#45;&gt;Node4</title>
<g id="a_edge3_Node000002_Node000004"><a xlink:title=" ">
<path fill="none" stroke="#63b8ff" d="M161.99,-54.84C148.87,-46.81 129.43,-34.91 114.02,-25.48"/>
<polygon fill="#63b8ff" stroke="#63b8ff" points="116.23,-22.73 105.87,-20.49 112.57,-28.7 116.23,-22.73"/>
</a>
</g>
</g>
<!-- Node5 -->
<g id="Node000005" class="node">
<title>Node5</title>
<g id="a_Node000005"><a xlink:title=" ">
<polygon fill="#e0e0e0" stroke="#999999" points="166.75,-19.25 126.75,-19.25 126.75,0 166.75,0 166.75,-19.25"/>
<text text-anchor="middle" x="146.75" y="-5.75" font-family="Helvetica,sans-Serif" font-size="10.00">string</text>
</a>
</g>
</g>
<!-- Node2&#45;&gt;Node5 -->
<g id="edge4_Node000002_Node000005" class="edge">
<title>Node2&#45;&gt;Node5</title>
<g id="a_edge4_Node000002_Node000005"><a xlink:title=" ">
<path fill="none" stroke="#63b8ff" d="M171.8,-55.08C167.87,-48.11 162.24,-38.12 157.31,-29.37"/>
<polygon fill="#63b8ff" stroke="#63b8ff" points="160.51,-27.92 152.55,-20.93 154.41,-31.36 160.51,-27.92"/>
</a>
</g>
</g>
<!-- Node6 -->
<g id="Node000006" class="node">
<title>Node6</title>
<g id="a_Node000006"><a xlink:title=" ">
<polygon fill="#e0e0e0" stroke="#999999" points="228.25,-19.25 185.25,-19.25 185.25,0 228.25,0 228.25,-19.25"/>
<text text-anchor="middle" x="206.75" y="-5.75" font-family="Helvetica,sans-Serif" font-size="10.00">cmath</text>
</a>
</g>
</g>
<!-- Node2&#45;&gt;Node6 -->
<g id="edge5_Node000002_Node000006" class="edge">
<title>Node2&#45;&gt;Node6</title>
<g id="a_edge5_Node000002_Node000006"><a xlink:title=" ">
<path fill="none" stroke="#63b8ff" d="M181.7,-55.08C185.63,-48.11 191.26,-38.12 196.19,-29.37"/>
<polygon fill="#63b8ff" stroke="#63b8ff" points="199.09,-31.36 200.95,-20.93 192.99,-27.92 199.09,-31.36"/>
</a>
</g>
</g>
<!-- Node7 -->
<g id="Node000007" class="node">
<title>Node7</title>
<g id="a_Node000007"><a xlink:title=" ">
<polygon fill="#e0e0e0" stroke="#999999" points="318.88,-19.25 246.62,-19.25 246.62,0 318.88,0 318.88,-19.25"/>
<text text-anchor="middle" x="282.75" y="-5.75" font-family="Helvetica,sans-Serif" font-size="10.00">Eigen/Dense</text>
</a>
</g>
</g>
<!-- Node2&#45;&gt;Node7 -->
<g id="edge6_Node000002_Node000007" class="edge">
<title>Node2&#45;&gt;Node7</title>
<g id="a_edge6_Node000002_Node000007"><a xlink:title=" ">
<path fill="none" stroke="#63b8ff" d="M194.73,-54.84C211.1,-46.62 235.54,-34.34 254.51,-24.81"/>
<polygon fill="#63b8ff" stroke="#63b8ff" points="255.96,-28 263.33,-20.38 252.82,-21.74 255.96,-28"/>
</a>
</g>
</g>
<!-- Node8 -->
<g id="Node000008" class="node">
<title>Node8</title>
<g id="a_Node000008"><a xlink:title=" ">
<polygon fill="#e0e0e0" stroke="#999999" points="423,-19.25 336.5,-19.25 336.5,0 423,0 423,-19.25"/>
<text text-anchor="middle" x="379.75" y="-5.75" font-family="Helvetica,sans-Serif" font-size="10.00">Eigen/Geometry</text>
</a>
</g>
</g>
<!-- Node2&#45;&gt;Node8 -->
<g id="edge7_Node000002_Node000008" class="edge">
<title>Node2&#45;&gt;Node8</title>
<g id="a_edge7_Node000002_Node000008"><a xlink:title=" ">
<path fill="none" stroke="#63b8ff" d="M203.29,-56.91C236.42,-48.22 293.63,-33.21 333.91,-22.65"/>
<polygon fill="#63b8ff" stroke="#63b8ff" points="334.8,-26.03 343.58,-20.11 333.02,-19.26 334.8,-26.03"/>
</a>
</g>
</g>
</g>
</svg>
