<?xml version="1.0" encoding="UTF-8" standalone="no"?>
<!DOCTYPE svg PUBLIC "-//W3C//DTD SVG 1.1//EN"
 "http://www.w3.org/Graphics/SVG/1.1/DTD/svg11.dtd">
<!-- Generated by graphviz version 12.2.1 (20241206.2353)
 -->
<!-- Title: Graphical Class Hierarchy Pages: 1 -->
<svg width="308pt" height="76pt"
 viewBox="0.00 0.00 307.75 75.88" xmlns="http://www.w3.org/2000/svg" xmlns:xlink="http://www.w3.org/1999/xlink">
<g id="graph0" class="graph" transform="scale(1 1) rotate(0) translate(4 71.88)">
<title>Graphical Class Hierarchy</title>
<!-- Node0 -->
<g id="Node000000" class="node">
<title>Node0</title>
<g id="a_Node000000"><a xlink:href="struct_astro_1_1_orbital_elements_1_1_keplerian.html" target="_top" xlink:title="Structure container for the (modified) Keplerian orbital elements.">
<polygon fill="white" stroke="#666666" points="115,-45.88 0,-45.88 0,-15.37 115,-15.37 115,-45.88"/>
<text text-anchor="start" x="8" y="-32.38" font-family="Helvetica,sans-Serif" font-size="10.00">Astro::OrbitalElements</text>
<text text-anchor="middle" x="57.5" y="-21.12" font-family="Helvetica,sans-Serif" font-size="10.00">::Keplerian</text>
</a>
</g>
</g>
<!-- Node1 -->
<g id="Node000001" class="node">
<title>Node1</title>
<g id="a_Node000001"><a xlink:href="struct_astro_1_1_planets_1_1_keplerian_earth.html" target="_top" xlink:title="Structure container for the Earth J2000 Keplerian orbital elements for orbit about the Sun.">
<polygon fill="white" stroke="#666666" points="287.75,-67.88 163,-67.88 163,-37.38 287.75,-37.38 287.75,-67.88"/>
<text text-anchor="start" x="171" y="-54.38" font-family="Helvetica,sans-Serif" font-size="10.00">Astro::Planets::Keplerian</text>
<text text-anchor="middle" x="225.38" y="-43.12" font-family="Helvetica,sans-Serif" font-size="10.00">Earth</text>
</a>
</g>
</g>
<!-- Node0&#45;&gt;Node1 -->
<g id="edge1_Node000000_Node000001" class="edge">
<title>Node0&#45;&gt;Node1</title>
<g id="a_edge1_Node000000_Node000001"><a xlink:title=" ">
<path fill="none" stroke="#63b8ff" d="M126.44,-39.64C138.41,-41.22 150.82,-42.87 162.61,-44.43"/>
<polygon fill="#63b8ff" stroke="#63b8ff" points="126.99,-36.18 116.62,-38.33 126.07,-43.12 126.99,-36.18"/>
</a>
</g>
</g>
<!-- Node2 -->
<g id="Node000002" class="node">
<title>Node2</title>
<g id="a_Node000002"><a xlink:href="struct_astro_1_1_planets_1_1_keplerian_moon.html" target="_top" xlink:title="Structure container for the Moon Keplerian orbital elements for orbit about the Earth.">
<polygon fill="white" stroke="#666666" points="299.75,-19.25 151,-19.25 151,0 299.75,0 299.75,-19.25"/>
<text text-anchor="middle" x="225.38" y="-5.75" font-family="Helvetica,sans-Serif" font-size="10.00">Astro::Planets::KeplerianMoon</text>
</a>
</g>
</g>
<!-- Node0&#45;&gt;Node2 -->
<g id="edge2_Node000000_Node000002" class="edge">
<title>Node0&#45;&gt;Node2</title>
<g id="a_edge2_Node000000_Node000002"><a xlink:title=" ">
<path fill="none" stroke="#63b8ff" d="M126.32,-22.04C134.36,-21.02 142.59,-19.98 150.7,-18.95"/>
<polygon fill="#63b8ff" stroke="#63b8ff" points="126.1,-18.54 116.62,-23.27 126.98,-25.48 126.1,-18.54"/>
</a>
</g>
</g>
</g>
</svg>
